# xmcd
#
# Track frame offsets: 
#        150
#        28657
#        50302
#        76262
#        108090
#        140012
#        168355
#        192210
#        218477
#
# Disc length: 3146 seconds
#
# Revision: 0
# Processed by: cddbd v1.5.2PL0 Copyright (c) Steve Scherf et al.
# Submitted via: ExactAudioCopy v0.95b4
#
DISCID=6d0c4809
DTITLE=Joe Root Band - Do what you wanna do
DYEAR=1994
DGENRE=Blues
TTITLE0=Do what you wanna do
TTITLE1=CQ Blues
TTITLE2=We are the  Pease
TTITLE3=Slow Joe
TTITLE4=Bridges of the Heart
TTITLE5=Funky Feelin`
TTITLE6=Bad Blues
TTITLE7=Answers
TTITLE8=Can`t get over
EXTD=
EXTT0=Do what you wanna do
EXTT1=
EXTT2=
EXTT3=
EXTT4=
EXTT5=
EXTT6=
EXTT7=
EXTT8=
PLAYORDER=
